HIERARCHY
ROOT joint_0
{
	OFFSET 0.000000 0.000000 0.000000
	CHANNELS 6 Xposition Yposition Zposition Zrotation Yrotation Xrotation 
	JOINT joint_1
	{
		OFFSET 6.004005 -1.946999 100.587036
		CHANNELS 3 Zrotation Yrotation Xrotation
		JOINT joint_2
		{
			OFFSET -4.601006 -0.824997 91.925903
			CHANNELS 3 Zrotation Yrotation Xrotation
			JOINT joint_3
			{
				OFFSET -5.420998 -1.130005 91.774048
				CHANNELS 3 Zrotation Yrotation Xrotation
				JOINT joint_4
				{
					OFFSET 4.308998 -3.777992 123.473999
					CHANNELS 3 Zrotation Yrotation Xrotation
					JOINT joint_5
					{
						OFFSET 25.565002 -6.305008 79.437988
						CHANNELS 3 Zrotation Yrotation Xrotation
						End Site
						{
							OFFSET 0.000000 0.000000 0.000000
						}
					}
				}
				JOINT joint_6
				{
					OFFSET -1.750000 -28.655998 68.557983
					CHANNELS 3 Zrotation Yrotation Xrotation
					JOINT joint_7
					{
						OFFSET -17.692001 -116.544006 -17.244019
						CHANNELS 3 Zrotation Yrotation Xrotation
						JOINT joint_8
						{
							OFFSET 27.063004 -23.640991 -266.895020
							CHANNELS 3 Zrotation Yrotation Xrotation
							JOINT joint_9
							{
								OFFSET 40.722000 -15.761017 -232.488953
								CHANNELS 3 Zrotation Yrotation Xrotation
								End Site
								{
									OFFSET 0.000000 0.000000 0.000000
								}
							}
						}
					}
				}
				JOINT joint_10
				{
					OFFSET 6.593002 24.457001 69.892944
					CHANNELS 3 Zrotation Yrotation Xrotation
					JOINT joint_11
					{
						OFFSET 24.311996 114.920002 -19.872925
						CHANNELS 3 Zrotation Yrotation Xrotation
						JOINT joint_12
						{
							OFFSET 21.081001 15.319000 -268.037964
							CHANNELS 3 Zrotation Yrotation Xrotation
							JOINT joint_13
							{
								OFFSET 27.794006 -8.947001 -234.744080
								CHANNELS 3 Zrotation Yrotation Xrotation
								End Site
								{
									OFFSET 0.000000 0.000000 0.000000
								}
							}
						}
					}
				}
			}
		}
	}
	JOINT joint_14
	{
		OFFSET -6.627998 -80.520004 -98.790039
		CHANNELS 3 Zrotation Yrotation Xrotation
		JOINT joint_15
		{
			OFFSET -43.638000 -13.751999 -502.538971
			CHANNELS 3 Zrotation Yrotation Xrotation
			JOINT joint_16
			{
				OFFSET -39.532999 -9.912994 -398.071007
				CHANNELS 3 Zrotation Yrotation Xrotation
				JOINT joint_17
				{
					OFFSET 174.940004 -34.660995 -75.688002
					CHANNELS 3 Zrotation Yrotation Xrotation
					End Site
					{
						OFFSET 0.000000 0.000000 0.000000
					}
				}
			}
		}
	}
	JOINT joint_18
	{
		OFFSET 12.591003 79.842003 -98.765015
		CHANNELS 3 Zrotation Yrotation Xrotation
		JOINT joint_19
		{
			OFFSET -39.080002 -1.297001 -503.101013
			CHANNELS 3 Zrotation Yrotation Xrotation
			JOINT joint_20
			{
				OFFSET -51.570000 -0.514000 -396.815987
				CHANNELS 3 Zrotation Yrotation Xrotation
				JOINT joint_21
				{
					OFFSET 178.987999 -11.521999 -73.244003
					CHANNELS 3 Zrotation Yrotation Xrotation
					End Site
					{
						OFFSET 0.000000 0.000000 0.000000
					}
				}
			}
		}
	}
}
MOTION
Frames: 18
Frame Time: 0.016667
-1480.085327 848.434692 1095.124023 -1.699992 0.120614 -0.460727 0.797241 0.547567 0.202458 0.798777 -0.097719 0.094699 0.792105 0.130304 -0.074842 -0.112368 -2.573389 -0.297626 0.000000 0.000000 0.000000 1.887165 2.690836 0.233934 0.049538 2.188069 5.387372 -1.111090 2.839362 -5.083449 0.000000 0.000000 0.000000 0.859610 0.151782 1.689066 -0.202565 1.131823 -3.799365 0.572278 1.784065 5.540577 0.000000 0.000000 0.000000 -1.114544 -1.174936 -0.629093 -1.389766 0.433624 1.820391 -1.219708 1.551468 -0.219739 0.000000 0.000000 0.000000 -0.368434 -4.038900 5.992326 0.082723 3.059458 -0.617869 -0.018516 1.469538 0.086157 0.000000 0.000000 0.000000 
-1476.722778 848.311462 1095.578979 -1.367966 1.353198 -0.280818 0.725668 -0.138271 -0.202288 0.736824 0.044936 0.083171 0.725329 -0.074455 -0.073047 -0.273463 -3.801075 -0.108944 0.000000 0.000000 0.000000 1.994069 3.138949 -0.040184 0.062091 2.637022 5.205087 -0.915597 2.293095 -4.193598 0.000000 0.000000 0.000000 0.718711 0.689494 2.430349 -0.085890 2.038013 -4.573378 0.586704 0.241017 5.140085 0.000000 0.000000 0.000000 -1.174180 -2.122267 -0.851302 -1.510113 0.070452 1.955537 -1.331076 1.569828 -0.264192 0.000000 0.000000 0.000000 -0.467445 -5.138230 5.888941 -0.027656 2.805930 -0.784562 -0.144517 1.603091 0.043648 0.000000 0.000000 0.000000 
-1472.280762 847.912354 1096.124023 -1.033322 2.644926 -0.106100 0.639859 -0.918442 -0.591888 0.659901 0.178054 0.070379 0.643431 -0.285491 -0.079276 -0.408791 -4.868141 0.038963 0.000000 0.000000 0.000000 2.137115 3.575052 -0.150286 0.046122 3.148110 4.761145 -0.736548 1.841889 -3.366392 0.000000 0.000000 0.000000 0.729127 1.293898 3.018272 0.028855 2.883696 -5.014397 0.592382 -1.160272 4.738490 0.000000 0.000000 0.000000 -1.223124 -3.177942 -1.031810 -1.622874 -0.071407 2.043884 -1.433827 1.566190 -0.309186 0.000000 0.000000 0.000000 -0.551635 -6.311973 5.793429 -0.128196 2.705116 -0.914837 -0.257117 1.725227 0.005818 0.000000 0.000000 0.000000 
-1466.318237 846.745239 1096.649048 -0.787529 3.825745 -0.006462 0.560968 -1.789333 -0.858894 0.585857 0.281204 0.090230 0.561977 -0.445289 -0.113454 -0.450046 -5.358757 0.041874 0.000000 0.000000 0.000000 2.281259 3.976130 0.080357 -0.030215 3.713551 4.125871 -0.679916 1.584433 -3.143670 0.000000 0.000000 0.000000 1.117310 1.845229 3.261953 0.106341 3.388968 -4.784990 0.584313 -1.825539 4.480140 0.000000 0.000000 0.000000 -1.241440 -4.201297 -1.067613 -1.693898 0.137739 2.054415 -1.496289 1.569348 -0.335349 0.000000 0.000000 0.000000 -0.584850 -7.321900 5.796456 -0.172253 2.742642 -0.993326 -0.309935 1.848577 -0.007715 0.000000 0.000000 0.000000 
-1458.903442 845.012146 1097.197021 -0.590359 5.048528 0.054181 0.470745 -2.840201 -1.068315 0.497569 0.379772 0.125915 0.464639 -0.590938 -0.162900 -0.429732 -5.492522 -0.052679 0.000000 0.000000 0.000000 2.486454 4.355457 0.609297 -0.156327 4.362238 3.204236 -0.694404 1.509693 -3.239189 0.000000 0.000000 0.000000 1.804707 2.416259 3.266329 0.168533 3.696017 -4.030577 0.565948 -2.029292 4.285166 0.000000 0.000000 0.000000 -1.235872 -5.293055 -1.017290 -1.737835 0.552249 2.015410 -1.535358 1.625553 -0.340768 0.000000 0.000000 0.000000 -0.583676 -8.294142 5.863868 -0.177807 2.801310 -1.052844 -0.324281 2.020533 -0.002538 0.000000 0.000000 0.000000 
-1451.453735 843.337585 1097.927002 -0.395360 5.962626 0.099959 0.434390 -3.544671 -1.259689 0.462906 0.440094 0.180055 0.420867 -0.688588 -0.212088 -0.397210 -5.423181 -0.136657 0.000000 0.000000 0.000000 2.565131 4.674807 1.023192 -0.276891 4.905843 2.331231 -0.717734 1.359456 -3.411882 0.000000 0.000000 0.000000 2.266820 2.868769 3.342019 0.234308 3.945918 -3.308362 0.561696 -2.336066 4.186996 0.000000 0.000000 0.000000 -1.226763 -6.388986 -0.917240 -1.789705 1.713360 1.882941 -1.562964 1.351154 -0.406387 0.000000 0.000000 0.000000 -0.581995 -9.380991 5.830875 -0.211151 3.824275 -0.887613 -0.336022 1.873646 -0.016733 0.000000 0.000000 0.000000 
-1445.067871 842.116699 1098.994019 -0.170848 6.328373 0.105009 0.509724 -3.499450 -1.400847 0.537607 0.443821 0.224671 0.489304 -0.691722 -0.254419 -0.388639 -5.292362 -0.139371 0.000000 0.000000 0.000000 2.330096 4.888602 1.007005 -0.348214 5.167187 1.821098 -0.719414 1.004450 -3.547690 0.000000 0.000000 0.000000 2.043933 3.076426 3.753802 0.313278 4.255159 -3.102607 0.596427 -3.166488 4.292676 0.000000 0.000000 0.000000 -1.230857 -7.573278 -0.718234 -1.878566 4.255178 1.571010 -1.599214 0.446810 -0.599541 0.000000 0.000000 0.000000 -0.586004 -10.726476 5.589174 -0.308159 6.540935 -0.283405 -0.353229 1.241482 -0.063889 0.000000 0.000000 0.000000 
-1439.210205 841.115051 1100.337036 0.043120 6.268665 0.048394 0.676297 -2.872982 -1.460555 0.702079 0.385274 0.256634 0.650309 -0.612452 -0.297906 -0.387531 -5.047855 -0.094234 0.000000 0.000000 0.000000 1.848926 5.013637 0.708317 -0.392444 5.218321 1.549923 -0.722073 0.543327 -3.730713 0.000000 0.000000 0.000000 1.342460 3.094250 4.391225 0.397384 4.577528 -3.215297 0.658779 -4.315434 4.590682 0.000000 0.000000 0.000000 -1.237221 -8.857669 -0.398780 -1.987757 7.946544 1.092881 -1.664898 -0.730862 -0.857134 0.000000 0.000000 0.000000 -0.554152 -12.236483 5.198064 -0.422097 10.515874 0.698729 -0.340484 0.534404 -0.103059 0.000000 0.000000 0.000000 
-1433.138550 840.388489 1101.734009 0.223630 5.843291 0.031526 0.889014 -2.039962 -1.538387 0.909615 0.299896 0.344460 0.851211 -0.501242 -0.327808 -0.369354 -4.456645 -0.007449 0.000000 0.000000 0.000000 1.329750 5.152958 0.276584 -0.452008 5.274233 1.180497 -0.689943 -0.215009 -3.845291 0.000000 0.000000 0.000000 0.684966 3.083489 4.944928 0.483182 4.806497 -3.145306 0.693330 -5.529979 4.686170 0.000000 0.000000 0.000000 -1.215935 -9.723416 -0.196715 -2.088210 11.575473 0.696785 -1.758842 -1.618873 -1.066412 0.000000 0.000000 0.000000 -0.501386 -13.756965 4.710885 -0.555552 15.252217 1.768772 -0.338872 0.049521 -0.132138 0.000000 0.000000 0.000000 
-1426.563965 840.025085 1103.136963 0.364734 5.027099 0.035629 1.132842 -1.207856 -1.512493 1.134969 0.246068 0.450740 1.066509 -0.377114 -0.332046 -0.319357 -3.342350 0.126806 0.000000 0.000000 0.000000 0.939963 5.374064 -0.171897 -0.564567 5.496060 0.411606 -0.586135 -1.518943 -3.782444 0.000000 0.000000 0.000000 0.350724 3.118653 5.177298 0.573077 4.822231 -2.481060 0.655505 -6.653959 4.237384 0.000000 0.000000 0.000000 -1.121886 -9.846254 -0.180702 -2.150696 14.531081 0.547238 -1.844961 -2.060921 -1.181842 0.000000 0.000000 0.000000 -0.448649 -15.294100 4.261647 -0.748576 20.759741 2.731032 -0.437454 -0.024894 -0.174652 0.000000 0.000000 0.000000 
-1419.759644 839.997498 1104.633057 0.398844 3.755746 -0.089028 1.421055 -0.154107 -1.118952 1.428066 0.174423 0.435215 1.359749 -0.231378 -0.313475 -0.255447 -1.790163 0.334028 0.000000 0.000000 0.000000 0.602984 5.639981 -0.658030 -0.726422 5.818913 -0.669052 -0.434399 -3.296780 -3.606848 0.000000 0.000000 0.000000 0.148026 3.135211 5.185771 0.664103 4.650026 -1.390483 0.561928 -7.760207 3.386041 0.000000 0.000000 0.000000 -0.945734 -9.376096 -0.126285 -2.155451 17.249055 0.532816 -1.910804 -2.176926 -1.221994 0.000000 0.000000 0.000000 -0.323257 -16.800394 3.958023 -0.981149 27.027658 3.654026 -0.648509 0.673304 -0.211715 0.000000 0.000000 0.000000 
-1411.919189 840.124756 1105.765991 0.282330 2.460702 -0.283676 1.696914 0.630408 -0.556818 1.758205 0.082273 0.331611 1.702238 -0.116970 -0.281277 -0.203747 0.087037 0.646404 0.000000 0.000000 0.000000 0.209781 5.942111 -1.168398 -0.908908 6.175566 -1.800953 -0.308208 -5.018297 -3.489273 0.000000 0.000000 0.000000 0.269010 3.240016 5.113736 0.729130 4.471683 -0.246324 0.442331 -8.798031 2.450273 0.000000 0.000000 0.000000 -0.756331 -8.489240 -0.006195 -2.112639 19.225962 0.572308 -1.963818 -2.100740 -1.218841 0.000000 0.000000 0.000000 -0.051786 -18.136081 3.749864 -1.168764 32.906059 4.480826 -0.905047 2.010310 -0.225579 0.000000 0.000000 0.000000 
-1402.210327 840.266235 1106.246948 0.058519 1.492947 -0.405991 1.973319 0.566037 -0.151923 2.046031 0.030802 0.245437 2.002977 -0.078158 -0.231712 -0.178662 2.392351 1.097801 0.000000 0.000000 0.000000 -0.323352 6.301600 -1.755565 -1.074164 6.527512 -2.781248 -0.242684 -6.288515 -3.514863 0.000000 0.000000 0.000000 0.943486 3.525393 5.099006 0.744702 4.420671 0.694825 0.308439 -9.692565 1.605882 0.000000 0.000000 0.000000 -0.652572 -7.251306 0.077174 -2.068997 19.937541 0.620387 -2.032142 -2.030763 -1.225585 0.000000 0.000000 0.000000 0.359284 -19.346110 3.473220 -1.296785 37.916108 5.213531 -1.185460 3.540283 -0.236093 0.000000 0.000000 0.000000 
-1390.944214 840.489380 1106.255005 -0.236715 0.681070 -0.472264 2.303077 -0.149104 0.168424 2.272702 0.037604 0.157628 2.240347 -0.121933 -0.158183 -0.189164 5.131721 1.667870 0.000000 0.000000 0.000000 -0.949143 6.715038 -2.441188 -1.225940 6.887336 -3.703122 -0.203984 -7.299672 -3.598866 0.000000 0.000000 0.000000 2.119926 3.925032 5.181464 0.712157 4.434138 1.508233 0.141570 -10.438836 0.715176 0.000000 0.000000 0.000000 -0.655585 -5.595763 0.102655 -2.015405 19.603948 0.696133 -2.091504 -1.984785 -1.235494 0.000000 0.000000 0.000000 0.887121 -20.498206 3.136955 -1.400363 42.533866 5.891770 -1.549086 5.294428 -0.262357 0.000000 0.000000 0.000000 
-1379.409546 840.889832 1105.701050 -0.524335 -0.029505 -0.570457 2.616742 -0.857290 0.512335 2.427611 0.060894 0.049912 2.405732 -0.199059 -0.076021 -0.232804 7.495272 2.172500 0.000000 0.000000 0.000000 -1.589145 7.028209 -3.063018 -1.366548 7.146799 -4.626651 -0.170686 -8.273517 -3.698638 0.000000 0.000000 0.000000 3.342131 4.330697 5.410694 0.651703 4.525245 2.084245 -0.037078 -11.278559 -0.125861 0.000000 0.000000 0.000000 -0.696273 -3.976955 0.127998 -1.918635 19.181385 0.797201 -2.091066 -2.040506 -1.241126 0.000000 0.000000 0.000000 1.524274 -21.599826 2.860852 -1.410858 46.615421 6.571189 -1.758122 6.902133 -0.241136 0.000000 0.000000 0.000000 
-1368.511963 841.512085 1104.433960 -0.761265 -0.629919 -0.767190 2.818366 -1.197590 0.933208 2.524733 0.088627 -0.066759 2.512551 -0.258779 -0.001470 -0.278840 9.014602 2.492965 0.000000 0.000000 0.000000 -2.207292 7.124556 -3.473376 -1.505738 7.232149 -5.641720 -0.127769 -9.404568 -3.781861 0.000000 0.000000 0.000000 4.319374 4.732672 5.750259 0.577036 4.734745 2.387058 -0.217640 -12.528639 -0.854923 0.000000 0.000000 0.000000 -0.662940 -2.757262 0.205388 -1.747725 19.337762 0.941590 -2.002079 -2.301191 -1.250104 0.000000 0.000000 0.000000 2.261238 -22.740443 2.754430 -1.296676 50.270692 7.299742 -1.561366 7.948867 -0.117519 0.000000 0.000000 0.000000 
-1357.768799 842.323425 1102.494019 -0.949692 -1.091574 -1.012828 2.939055 -1.443259 1.350726 2.561898 0.149883 -0.163070 2.548487 -0.320705 0.070522 -0.313508 10.024928 2.688727 0.000000 0.000000 0.000000 -2.843753 7.056352 -3.732612 -1.638000 7.176420 -6.730074 -0.076526 -10.620454 -3.850099 0.000000 0.000000 0.000000 5.212307 5.185575 6.166914 0.477244 5.064351 2.480272 -0.412659 -14.119444 -1.504746 0.000000 0.000000 0.000000 -0.585962 -1.770872 0.291197 -1.526779 19.710564 1.141602 -1.848972 -2.738258 -1.268409 0.000000 0.000000 0.000000 3.058551 -23.963079 2.739391 -1.119373 53.669506 8.063696 -0.999117 8.444722 0.084256 0.000000 0.000000 0.000000 
-1346.888306 843.379944 1100.246948 -1.001603 -1.437324 -1.250601 2.956030 -1.572015 1.754523 2.545342 0.198271 -0.255824 2.531657 -0.364718 0.133150 -0.331998 10.599923 2.783603 0.000000 0.000000 0.000000 -3.380561 6.901469 -3.877903 -1.752756 7.047089 -7.707271 -0.044873 -11.721713 -4.000536 0.000000 0.000000 0.000000 5.887604 5.607996 6.471517 0.379747 5.386098 2.539011 -0.572793 -15.513110 -1.926518 0.000000 0.000000 0.000000 -0.580963 -0.932730 0.377794 -1.358943 20.180190 1.306550 -1.735082 -3.226998 -1.314266 0.000000 0.000000 0.000000 3.761737 -25.110680 2.630168 -0.943945 56.139126 8.795575 -0.182666 8.327256 0.330335 0.000000 0.000000 0.000000 
